<svg width="500" height="500" viewBox="0 0 500 500" fill="none" xmlns="http://www.w3.org/2000/svg">
<path fill-rule="evenodd" clip-rule="evenodd" d="M458.333 83.3334H291.667L262.292 53.9584C254.375 46.0417 243.75 41.6667 232.708 41.6667H125C102.083 41.6667 83.5417 60.4167 83.5417 83.3334L83.3333 333.333C83.3333 356.25 102.083 375 125 375H458.333C481.25 375 500 356.25 500 333.333V125C500 102.083 481.25 83.3334 458.333 83.3334ZM20.8333 125C9.375 125 0 134.375 0 145.833V229.167H0.208333L0 416.667C0 439.583 18.75 458.333 41.6667 458.333H395.833C407.292 458.333 416.667 448.958 416.667 437.5C416.667 426.042 407.292 416.667 395.833 416.667H62.5C51.0417 416.667 41.6667 407.292 41.6667 395.833V145.833C41.6667 134.375 32.2917 125 20.8333 125ZM231.458 198.333L158.333 295.833C153.125 302.708 158.125 312.5 166.667 312.292H416.458C425 312.292 430 302.292 424.583 295.417L372.708 228.75C368.542 223.542 360.625 223.333 356.458 228.542L312.708 281.25L248.125 198.125C243.75 192.708 235.625 192.917 231.458 198.333Z" fill="#BDBDBD"/>
</svg>
